<?xml version="1.0" encoding="UTF-8"?>
<svg xmlns="http://www.w3.org/2000/svg" xml:space="preserve" width="65.5305mm" height="65.5297mm" version="1.1" style="shape-rendering:geometricPrecision; text-rendering:geometricPrecision; image-rendering:optimizeQuality; fill-rule:evenodd; clip-rule:evenodd"
viewBox="0 0 554.82 554.81"
 xmlns:xlink="http://www.w3.org/1999/xlink"
 xmlns:xodm="http://www.corel.com/coreldraw/odm/2003">
 <defs>
  <style type="text/css">
   <![CDATA[
    .fil0 {fill:#005EA7;fill-rule:nonzero}
    .fil1 {fill:white;fill-rule:nonzero}
   ]]>
  </style>
 </defs>
 <g>
  <metadata id="CorelCorpID_0Corel-Layer"/>
  <g id="_1277315945792">
   <path class="fil0" d="M0 277.25c-0.08,153.22 124.05,277.47 277.24,277.56 153.19,0.09 277.48,-124.04 277.57,-277.24 0.07,-153.21 -124.04,-277.48 -277.26,-277.57 -153.2,-0.08 -277.48,124.05 -277.56,277.24z"/>
   <polygon class="fil1" points="60.93,180.52 101.04,185.19 107.84,186.12 107.96,185.89 103.44,180.73 77.51,149.73 85.07,135.7 141.66,166.18 135.39,177.8 106.58,162.27 100.55,158.83 100.35,159.02 104.95,164.22 127.96,191.61 123.4,200.06 87.99,195.87 81.12,194.89 81.11,195.09 87.26,198.3 116.01,213.78 109.95,225.03 53.37,194.55 "/>
   <path class="fil1" d="M188.63 72.24l-8.67 3.7 15.08 35.4 8.75 -3.73c9.07,-3.86 11.45,-8.32 5,-23.46 -5.98,-14.03 -10.78,-15.9 -20.16,-11.9zm20.43 47.09l-22.31 9.51 -25.19 -59.14 22.15 -9.44c18.77,-7.99 30.36,-2.4 39.06,18.01 9.1,21.37 3.78,33.6 -13.72,41.05z"/>
   <polygon class="fil1" points="232.65,45.1 247.2,42.76 257.42,106.22 242.87,108.56 "/>
   <path class="fil1" d="M309.87 56.2c-3.27,-1.45 -7.68,-2.54 -12.47,-2.78 -11.64,-0.6 -15.73,3.92 -16.5,19.15 -0.82,16.1 2.95,21.09 14.68,21.69 4.7,0.24 8.95,-0.49 12.62,-1.84l0.86 11.8c-4.3,1.84 -10.53,2.98 -16.18,2.69 -19.43,-1 -28.29,-12.26 -27.12,-35.2 1.09,-21.39 10.92,-32.31 31.46,-31.26 5.14,0.27 11.15,1.77 14.75,3.42l-2.09 12.34z"/>
   <path class="fil1" d="M354.95 66.68c-9.17,-3.37 -13.75,-0.85 -19.36,14.44 -5.61,15.28 -3.73,20.36 5.44,23.72 9.09,3.34 13.76,0.58 19.34,-14.63 5.61,-15.28 3.83,-20.13 -5.42,-23.53zm-18.46 50.28c-18.58,-6.82 -23.03,-19.59 -15.14,-41.07 7.88,-21.48 19.23,-28.27 38.05,-21.36 18.9,6.94 23,19.4 15.12,40.88 -8.03,21.88 -19.13,28.49 -38.03,21.55z"/>
   <path class="fil1" d="M380.75 141.21c-5.9,-4.56 -10.22,-10.18 -12.79,-15.96l9.09 -8.68c2.64,5.83 6.2,10.75 11.22,14.63 5.57,4.3 9.58,4.16 12.3,0.63 6.19,-8.01 -19.83,-22.7 -6.67,-39.71 6.66,-8.61 17.61,-11.29 30.5,-1.34 4.95,3.82 9.52,8.99 12.19,13.65l-8.87 8.52c-3.15,-4.6 -6.73,-8.67 -10.6,-11.66 -6.3,-4.87 -9.68,-4.01 -11.77,-1.3 -6.13,7.93 20.09,22.35 6.78,39.57 -7.76,10.04 -19.51,10.81 -31.38,1.63z"/>
   <path class="fil1" d="M92.99 319.39l-2.15 -9.18 -37.46 8.77 2.17 9.26c2.25,9.6 6.23,12.71 22.25,8.96 14.85,-3.47 17.52,-7.88 15.19,-17.81zm-49.9 12.03l-5.53 -23.61 62.58 -14.65 5.49 23.45c4.65,19.86 -2.85,30.33 -24.46,35.39 -22.61,5.29 -33.75,-2.05 -38.08,-20.58z"/>
   <polygon class="fil1" points="93,413.35 81.98,419.45 59.78,381.8 115.14,349.16 136.69,385.69 125.82,392.4 111.5,368.12 100.5,374.61 112.56,395.05 102.67,400.89 90.61,380.44 77.99,387.88 "/>
   <polygon class="fil1" points="136,457.09 126.72,466.24 97.4,437.99 141.99,391.71 152.49,401.82 116.93,438.72 "/>
   <polygon class="fil1" points="209.86,441.18 213.37,481.42 213.82,488.26 214.07,488.33 218.21,482.86 243.35,451.21 258.62,455.79 240.16,517.36 227.52,513.57 236.92,482.21 239.08,475.61 238.86,475.46 234.69,481 212.5,509.07 203.31,506.31 200.27,470.78 199.84,463.85 199.66,463.88 197.74,470.56 188.36,501.83 176.13,498.17 194.59,436.6 "/>
   <path class="fil1" d="M318.96 492.53c1.17,16.15 -6.97,24.73 -23.99,25.97 -16.92,1.22 -26.47,-6.07 -27.64,-22.23l-2.98 -41.2 14.36 -1.04 2.97 41.03c0.56,7.78 4.31,10.94 12.35,10.36 8.03,-0.58 11.21,-4.16 10.65,-12.03l-2.98 -41.03 14.27 -1.03 2.99 41.2z"/>
   <polygon class="fil1" points="387.01,492.11 350.25,469.77 344.44,466.02 344.32,466.17 347.14,472.51 360.48,503.53 348.67,508.61 323.27,449.56 334.61,444.69 368.73,466.11 374.55,469.86 374.66,469.71 371.8,463.48 359.17,434.12 370.9,429.07 396.3,488.11 "/>
   <path class="fil1" d="M402.9 418.78l-7 6.32 25.81 28.54 7.06 -6.38c7.31,-6.61 8.1,-11.6 -2.93,-23.81 -10.23,-11.32 -15.38,-11.52 -22.94,-4.68zm34.68 37.85l-18 16.27 -43.1 -47.68 17.86 -16.15c15.13,-13.68 27.92,-12.19 42.81,4.28 15.57,17.23 14.54,30.52 0.43,43.28z"/>
   <path class="fil1" d="M441.72 368.99c-4.76,8.54 -2.99,13.45 11.23,21.38 14.22,7.93 19.52,6.87 24.28,-1.66 4.72,-8.45 2.73,-13.49 -11.42,-21.39 -14.22,-7.94 -19.29,-6.94 -24.09,1.67zm46.78 26.1c-9.65,17.29 -22.96,19.67 -42.94,8.53 -19.98,-11.15 -24.91,-23.42 -15.14,-40.94 9.82,-17.58 22.76,-19.68 42.74,-8.53 20.36,11.36 25.15,23.35 15.34,40.94z"/>
   <path class="fil1" d="M371.62 275.61c-3.29,0.02 -5.95,-2.66 -5.96,-5.96 -0.01,-3.28 2.67,-5.96 5.97,-5.94 3.31,-0.02 5.95,2.65 5.96,5.96 -0.02,3.29 -2.68,5.96 -5.98,5.94zm97.94 -34.81c-0.57,-2.22 -2.83,-3.56 -5.05,-2.99 -18.37,4.59 -30.08,14.03 -38.53,28.21 -4.75,7.9 -8.68,17.2 -12.73,28.16 -1.89,-4.3 -6.43,-9.99 -17.06,-15.39 3.15,-26.99 -28.75,-57.24 -67.62,-34.1 -4.02,2.85 -10.23,2.66 -10.76,2.35 0,0 2.71,-2.71 2.7,-7.56 0,0 0.01,-23.01 0.01,-26.14 0,-4.7 -4.05,-32.26 -29.58,-32.26 -25.54,-0.02 -54.95,0.18 -54.95,0.18 4.26,6.06 7.25,12.58 7.26,19.76 -0.01,7.18 -0.02,46.1 -0.02,46.1l-37.52 -0.02c0,0 -14,1.11 -25.2,-8.31l-0.03 47.48c-0.01,23.75 18.12,35.41 33.13,35.4 24.64,0.02 29.22,0.04 29.22,0.04l-0.02 39.86c0,0 -0.32,10.75 -4.81,24.18l51.97 -0.2c30.98,-5.34 37.1,-33.05 26.2,-64.93 0,0 15.52,0.01 21.47,0.02 5.93,0.01 24.89,1.5 46,-21.25 3.29,-3.53 20.01,-0.45 27.35,1.08 -2.51,7.03 -5.12,14.67 -8.04,23.02 -8.11,23.23 -23.27,46.34 -45.14,63.08 -21.89,16.73 -50.41,27.23 -85.9,25.37 -36.25,-1.92 -68.25,-18.33 -90.76,-43.35 -22.49,-25.01 -35.43,-58.57 -33.52,-94.82 1.93,-36.25 18.34,-68.25 43.35,-90.76 25.02,-22.49 58.58,-35.44 94.83,-33.52 45.3,2.4 84.01,27.46 105.75,63.63 1.19,1.96 3.73,2.59 5.7,1.42 1.96,-1.18 2.59,-3.73 1.42,-5.69 -23.09,-38.42 -64.28,-65.08 -112.42,-67.64 -77.05,-4.08 -142.81,55.07 -146.89,132.12 -4.08,77.05 55.06,142.81 132.11,146.89l0.09 0.01c37.33,1.98 67.99,-9.22 91.29,-27.08 23.32,-17.88 39.32,-42.3 47.93,-66.92 8.65,-24.77 14.58,-43.16 22.31,-55.92 7.79,-12.74 16.79,-20.1 33.48,-24.46 2.22,-0.57 3.56,-2.83 2.99,-5.05zm39.44 -2.87c13.68,-5.08 20.89,-19.71 20.89,-19.71 0,0 -15,-6.38 -28.69,-1.29 -13.69,5.08 -20.89,19.7 -20.89,19.7 0,0 15,6.38 28.69,1.29zm-6.01 18.36c-12.57,-7.44 -28.46,-3.84 -28.46,-3.84 0,0 4.48,15.67 17.05,23.11 12.57,7.45 28.46,3.84 28.46,3.84 0,0 -4.48,-15.67 -17.04,-23.11zm-52.22 4.52c0,0 -0.91,16.27 8.5,27.42 9.43,11.16 25.62,12.97 25.62,12.97 0,0 0.91,-16.27 -8.51,-27.43 -9.43,-11.15 -25.62,-12.97 -25.62,-12.97zm36.62 -52.51c6.14,-13.24 0.96,-28.7 0.96,-28.7 0,0 -15.14,6.03 -21.28,19.28 -6.14,13.25 -0.97,28.69 -0.97,28.69 0,0 15.14,-6.02 21.29,-19.28zm-33.24 3.56c2.21,-14.43 -7.06,-27.84 -7.06,-27.84 0,0 -12.87,10 -15.08,24.44 -2.22,14.43 7.06,27.83 7.06,27.83 0,0 12.86,-10 15.08,-24.43z"/>
   <path class="fil1" d="M123.48 78.1l-1.79 15.69 -7.85 7.17 -2.88 -11.41 12.52 -11.45zm48.98 44.17l8.25 9.53 -32.26 29.49 -43.37 -47.44 31.3 -28.63 8.81 9.25 -20.81 19.02 8.61 9.42 17.52 -16.02 7.75 8.48 -17.52 16.02 9.89 10.81 21.82 -19.95z"/>
  </g>
 </g>
</svg>
