<?xml version="1.0" encoding="UTF-8"?>
<!DOCTYPE svg PUBLIC "-//W3C//DTD SVG 1.1//EN" "http://www.w3.org/Graphics/SVG/1.1/DTD/svg11.dtd">
<!-- Creator: CorelDRAW 2020 (64-Bit) -->
<svg xmlns="http://www.w3.org/2000/svg" xml:space="preserve" width="200.731mm" height="78.8223mm" version="1.1" style="shape-rendering:geometricPrecision; text-rendering:geometricPrecision; image-rendering:optimizeQuality; fill-rule:evenodd; clip-rule:evenodd"
viewBox="0 0 1034687.84 406297.97"
 xmlns:xlink="http://www.w3.org/1999/xlink"
 xmlns:xodm="http://www.corel.com/coreldraw/odm/2003">
 <defs>
  <style type="text/css">
   <![CDATA[
    .fil0 {fill:#2B2959}
    .fil2 {fill:#FEFEFE;fill-rule:nonzero}
    .fil1 {fill:#E9552A;fill-rule:nonzero}
   ]]>
  </style>
 </defs>
 <g id="Содержимое_x0020_PowerClip">
  <metadata id="CorelCorpID_0Corel-Layer"/>
  <polygon class="fil0" points="-0,0 751921.06,0 751921.06,192753.95 -0,192753.95 "/>
  <polygon class="fil0" points="-0,191723.02 1034687.84,191723.02 1034687.84,406297.97 -0,406297.97 "/>
  <g id="_1277315868064">
   <path class="fil1" d="M52315.65 166897.92l0 -137576.97 27350.34 0 0 49149.69 12967.44 0 0 -49149.69 27376.63 0 0 137576.97 -27376.63 0 0 -62384.66 -12967.44 0 0 62384.66 -27350.34 0zm112708.57 1254.12c-10993.23,0 -19398.33,-3335.55 -25215.31,-9979.32 -5816.97,-6644.29 -8698.4,-16249.9 -8698.4,-28791.06l0 -65346.5c0,-11793.74 2855.14,-20732.34 8618.5,-26816.33 5763.37,-6110.27 14195.27,-9152 25295.2,-9152 11100.45,0 19531.84,3041.73 25295.72,9152 5763.37,6083.98 8618.5,15022.59 8618.5,26816.33l0 65346.5c0,12541.16 -2881.94,22146.77 -8698.91,28791.06 -5816.46,6643.77 -14221.56,9979.32 -25215.31,9979.32zm240.2 -25322.01c4162.86,0 6243.78,-4055.64 6243.78,-12114.36l0 -67160.4c0,-6777.79 -2027.82,-10166.43 -6083.47,-10166.43 -4589.66,0 -6884.49,3468.53 -6884.49,10406.12l0 67054.22c0,4295.85 507.21,7338.1 1547.93,9205.61 1067,1841.23 2774.72,2775.24 5176.26,2775.24zm77460.85 25322.01c-12567.96,0 -21613.27,-3122.15 -27163.23,-9392.21 -5549.97,-6243.78 -8325.21,-16196.81 -8325.21,-29858.58l0 -13447.85 27216.84 0 0 17210.2c0,3175.24 479.89,5657.18 1440.71,7471.6 960.3,1787.62 2641.74,2694.83 5043.27,2694.83 2481.43,0 4215.44,-747.42 5203.06,-2188.13 960.3,-1467.52 1440.71,-3869.05 1440.71,-7204.59 0,-4215.44 -426.8,-7737.58 -1254.12,-10592.72 -827.31,-2828.33 -2294.83,-5549.97 -4349.46,-8138.61 -2054.63,-2561.32 -4909.25,-5576.77 -8564.89,-9018.5l-12327.76 -11713.84c-9232.42,-8725.2 -13848.37,-18678.23 -13848.37,-29884.86 0,-11713.84 2721.63,-20652.45 8164.9,-26789.52 5443.26,-6163.88 13341.67,-9232.42 23641.09,-9232.42 12621.05,0 21586.46,3361.83 26869.93,10086.02 5282.96,6724.18 7924.69,16943.71 7924.69,30631.77l-27990.55 0 0 -9445.3c0,-1894.83 -533.5,-3335.55 -1601.02,-4376.26 -1067,-1040.72 -2508.23,-1574.22 -4322.65,-1574.22 -2187.62,0 -3788.64,613.91 -4802.55,1841.23 -1040.72,1227.31 -1547.93,2801.53 -1547.93,4722.65 0,1921.12 534.02,4029.36 1574.22,6270.58 1040.72,2241.22 3095.34,4803.06 6163.88,7738.1l15876.7 15235.99c3175.24,3014.93 6110.27,6216.97 8751.49,9579.32 2668.54,3361.83 4803.06,7257.69 6430.89,11713.33 1601.02,4456.16 2401.53,9899.42 2401.53,16303.51 0,12914.35 -2374.73,23053.98 -7150.99,30365.27 -4749.97,7337.58 -13047.86,10993.23 -24895.2,10993.23zm41225 -1254.12l0 -137576.97 36342.04 0c7604.59,0 13634.97,1680.92 18091.12,5069.56 4456.16,3388.64 7658.2,8218.51 9579.32,14462.28 1921.12,6243.78 2881.43,13714.86 2881.43,22360.17 0,8352.01 -799.99,15609.7 -2401.02,21773.06 -1627.82,6163.88 -4509.77,10966.94 -8645.31,14355.58 -4162.86,3388.64 -10032.93,5070.07 -17637.52,5070.07l-11180.34 0 0 54486.26 -27029.73 0zm27029.73 -79194.86l1574.22 0c5096.88,0 8218.51,-1414.42 9365.92,-4295.85 1147.42,-2855.14 1734.53,-7097.89 1734.53,-12674.66 0,-5203.06 -560.31,-9231.9 -1680.92,-12060.75 -1121.13,-2854.62 -3762.35,-4269.05 -7951.5,-4269.05l-3042.25 0 0 33300.31zm47308.98 79194.86l0 -137576.97 26576.12 0 0 137576.97 -26576.12 0zm49310 0l0 -111161.16 -16329.79 0 0 -26415.81 60196.53 0 0 26415.81 -16356.6 0 0 111161.16 -27510.14 0zm45734.76 0l13288.06 -137576.97 46668.78 0 13047.86 137576.97 -26015.82 0 -1974.73 -22200.38 -16570 0 -1707.72 22200.38 -26736.43 0zm30418.88 -44160.03l12487.55 0 -6003.57 -69962.96 -1254.12 0 -5229.86 69962.96zm51044.01 44160.03l0 -137576.97 27510.14 0 0 114122.48 28283.84 0 0 23454.49 -55793.98 0zm96298.88 1254.12c-12567.96,0 -21613.27,-3122.15 -27163.23,-9392.21 -5549.97,-6243.78 -8325.21,-16196.81 -8325.21,-29858.58l0 -13447.85 27216.84 0 0 17210.2c0,3175.24 479.89,5657.18 1440.71,7471.6 960.3,1787.62 2641.74,2694.83 5043.27,2694.83 2481.43,0 4215.44,-747.42 5203.06,-2188.13 960.3,-1467.52 1440.71,-3869.05 1440.71,-7204.59 0,-4215.44 -426.8,-7737.58 -1254.12,-10592.72 -827.31,-2828.33 -2294.83,-5549.97 -4349.46,-8138.61 -2054.63,-2561.32 -4909.25,-5576.77 -8564.89,-9018.5l-12327.76 -11713.84c-9232.42,-8725.2 -13848.37,-18678.23 -13848.37,-29884.86 0,-11713.84 2721.63,-20652.45 8164.9,-26789.52 5443.26,-6163.88 13341.67,-9232.42 23641.09,-9232.42 12621.05,0 21586.46,3361.83 26869.93,10086.02 5282.96,6724.18 7924.69,16943.71 7924.69,30631.77l-27990.55 0 0 -9445.3c0,-1894.83 -533.5,-3335.55 -1601.02,-4376.26 -1067,-1040.72 -2508.23,-1574.22 -4322.65,-1574.22 -2187.62,0 -3788.64,613.91 -4802.55,1841.23 -1040.72,1227.31 -1547.93,2801.53 -1547.93,4722.65 0,1921.12 534.02,4029.36 1574.22,6270.58 1040.72,2241.22 3095.34,4803.06 6163.88,7738.1l15876.7 15235.99c3175.24,3014.93 6110.27,6216.97 8751.49,9579.32 2668.54,3361.83 4803.06,7257.69 6430.89,11713.33 1601.02,4456.16 2401.53,9899.42 2401.53,16303.51 0,12914.35 -2374.73,23053.98 -7150.99,30365.27 -4749.97,7337.58 -13047.86,10993.23 -24895.2,10993.23zm40424.49 -77540.75l0 -23294.18 27990.55 0 0 23294.18 -27990.55 0zm0 57768.71l0 -23294.18 27990.55 0 0 23294.18 -27990.55 0z"/>
   <path class="fil2" d="M84121.64 369017.27c-11473.64,0 -19905.55,-3228.85 -25322.01,-9659.22 -5416.46,-6430.37 -8138.09,-15902.99 -8138.09,-28417.35l0 -100754.52 26735.91 0 0 99660.72c0,2294.83 133.5,4509.25 400.51,6616.97 240.2,2108.23 853.6,3842.76 1787.62,5176.77 934.01,1360.82 2455.14,2054.63 4536.05,2054.63 2135.04,0 3682.45,-667.01 4616.47,-2001.53 933.5,-1334.01 1520.61,-3068.54 1760.81,-5203.06 213.4,-2134.52 346.91,-4348.94 346.91,-6643.77l0 -99660.72 26736.43 0 0 100754.52c0,12514.35 -2721.63,21986.98 -8138.61,28417.35 -5416.46,6430.37 -13848.37,9659.22 -25322.01,9659.22zm44027.04 -1254.12l0 -137576.97 28283.84 0 12674.66 65880 0 -65880 26576.12 0 0 137576.97 -26896.22 0 -13768.47 -68788.74 0 68788.74 -26869.93 0zm91522.11 0l0 -111161.16 -16329.79 0 0 -26415.81 60196.53 0 0 26415.81 -16356.6 0 0 111161.16 -27510.14 0zm84344.83 1254.12c-10993.23,0 -19398.33,-3335.55 -25215.31,-9979.32 -5816.97,-6644.29 -8698.4,-16249.9 -8698.4,-28791.06l0 -65346.5c0,-11793.74 2855.14,-20732.34 8618.5,-26816.33 5763.37,-6110.27 14195.27,-9152 25295.2,-9152 11100.45,0 19531.84,3041.73 25295.72,9152 5763.37,6083.98 8618.5,15022.59 8618.5,26816.33l0 65346.5c0,12541.16 -2881.94,22146.77 -8698.91,28791.06 -5816.46,6643.77 -14221.56,9979.32 -25215.31,9979.32zm240.2 -25322.01c4162.86,0 6243.78,-4055.64 6243.78,-12114.36l0 -67160.4c0,-6777.79 -2027.82,-10166.43 -6083.47,-10166.43 -4589.66,0 -6884.49,3468.53 -6884.49,10406.12l0 67054.22c0,4295.85 507.21,7338.1 1547.93,9205.61 1067,1841.23 2774.72,2775.24 5176.26,2775.24zm44800.75 24067.89l0 -137576.97 27510.14 0 0 114122.48 28283.84 0 0 23454.49 -55793.98 0zm63638.78 0l0 -137576.97 37836.36 0c9899.42,0 17344.22,2748.44 22333.88,8244.79 5016.46,5496.87 7524.18,13528.27 7524.18,24121.5l0 64412.48c0,13021.05 -2294.32,23080.78 -6857.17,30178.16 -4562.86,7071.09 -12541.16,10620.04 -23961.19,10620.04l-36876.06 0zm27670.45 -24308.09l4749.45 0c5069.56,0 7604.59,-2454.62 7604.59,-7364.39l0 -70976.87c0,-4589.15 -613.91,-7524.18 -1841.23,-8858.71 -1227.31,-1334.01 -3708.74,-2001.02 -7471.09,-2001.02l-3041.73 0 0 89200.99zm121460.58 25562.21c-12567.96,0 -21613.27,-3122.15 -27163.23,-9392.21 -5549.97,-6243.78 -8325.21,-16196.81 -8325.21,-29858.58l0 -13447.85 27216.84 0 0 17210.2c0,3175.24 479.89,5657.18 1440.71,7471.6 960.3,1787.62 2641.74,2694.83 5043.27,2694.83 2481.43,0 4215.44,-747.42 5203.06,-2188.13 960.3,-1467.52 1440.71,-3869.05 1440.71,-7204.59 0,-4215.44 -426.8,-7737.58 -1254.12,-10592.72 -827.31,-2828.33 -2294.83,-5549.97 -4349.46,-8138.61 -2054.63,-2561.32 -4909.25,-5576.77 -8564.89,-9018.5l-12327.76 -11713.84c-9232.42,-8725.2 -13848.37,-18678.23 -13848.37,-29884.86 0,-11713.84 2721.63,-20652.45 8164.9,-26789.52 5443.26,-6163.88 13341.67,-9232.42 23641.09,-9232.42 12621.05,0 21586.46,3361.83 26869.93,10086.02 5282.96,6724.18 7924.69,16943.71 7924.69,30631.77l-27990.55 0 0 -9445.3c0,-1894.83 -533.5,-3335.55 -1601.02,-4376.26 -1067,-1040.72 -2508.23,-1574.22 -4322.65,-1574.22 -2187.62,0 -3788.64,613.91 -4802.55,1841.23 -1040.72,1227.31 -1547.93,2801.53 -1547.93,4722.65 0,1921.12 534.02,4029.36 1574.22,6270.58 1040.72,2241.22 3095.34,4803.06 6163.88,7738.1l15876.7 15235.99c3175.24,3014.93 6110.27,6216.97 8751.49,9579.32 2668.54,3361.83 4803.06,7257.69 6430.89,11713.33 1601.02,4456.16 2401.53,9899.42 2401.53,16303.51 0,12914.35 -2374.73,23053.98 -7150.99,30365.27 -4749.97,7337.58 -13047.86,10993.23 -24895.2,10993.23zm53018.74 -1254.12l0 -111161.16 -16329.79 0 0 -26415.81 60196.53 0 0 26415.81 -16356.6 0 0 111161.16 -27510.14 0zm84344.83 1254.12c-10993.23,0 -19398.33,-3335.55 -25215.31,-9979.32 -5816.97,-6644.29 -8698.4,-16249.9 -8698.4,-28791.06l0 -65346.5c0,-11793.74 2855.14,-20732.34 8618.5,-26816.33 5763.37,-6110.27 14195.27,-9152 25295.2,-9152 11100.45,0 19531.84,3041.73 25295.72,9152 5763.37,6083.98 8618.5,15022.59 8618.5,26816.33l0 65346.5c0,12541.16 -2881.94,22146.77 -8698.91,28791.06 -5816.46,6643.77 -14221.56,9979.32 -25215.31,9979.32zm240.2 -25322.01c4162.86,0 6243.78,-4055.64 6243.78,-12114.36l0 -67160.4c0,-6777.79 -2027.82,-10166.43 -6083.47,-10166.43 -4589.66,0 -6884.49,3468.53 -6884.49,10406.12l0 67054.22c0,4295.85 507.21,7338.1 1547.93,9205.61 1067,1841.23 2774.72,2775.24 5176.26,2775.24zm44800.75 24067.89l0 -137576.97 42212.62 0c7017.48,0 12327.24,1601.02 15929.8,4803.06 3602.04,3201.53 6003.57,7684.49 7230.88,13447.85 1227.31,5763.37 1841.23,12514.35 1841.23,20279.25 0,7497.89 -960.82,13501.46 -2855.14,17983.91 -1894.83,4482.96 -5470.07,7578.3 -10753.54,9286.02 4322.65,907.21 7364.9,3041.73 9125.72,6457.18 1734.53,3415.44 2614.93,7844.8 2614.93,13261.26l0 52058.44 -27136.43 0 0 -53872.86c0,-4002.55 -827.31,-6483.98 -2454.62,-7444.28 -1654.63,-987.62 -4296.36,-1467.52 -7925.21,-1467.52l0 62784.66 -27830.24 0zm27963.74 -86612.86l6644.29 0c3815.44,0 5709.76,-4135.54 5709.76,-12433.94 0,-5363.37 -400,-8885.51 -1254.12,-10540.14 -826.8,-1680.92 -2374.73,-2507.72 -4669.04,-2507.72l-6430.89 0 0 25481.8zm47068.78 86612.86l0 -137576.97 26576.12 0 0 137576.97 -26576.12 0zm37516.26 0l0 -137576.97 55020.27 0 0 26576.12 -27056.53 0 0 26816.33 25962.72 0 0 25855.51 -25962.72 0 0 31512.69 28844.15 0 0 26816.33 -56807.89 0zm98566.91 1254.12c-12567.96,0 -21613.27,-3122.15 -27163.23,-9392.21 -5549.97,-6243.78 -8325.21,-16196.81 -8325.21,-29858.58l0 -13447.85 27216.84 0 0 17210.2c0,3175.24 479.89,5657.18 1440.71,7471.6 960.3,1787.62 2641.74,2694.83 5043.27,2694.83 2481.43,0 4215.44,-747.42 5203.06,-2188.13 960.3,-1467.52 1440.71,-3869.05 1440.71,-7204.59 0,-4215.44 -426.8,-7737.58 -1254.12,-10592.72 -827.31,-2828.33 -2294.83,-5549.97 -4349.46,-8138.61 -2054.63,-2561.32 -4909.25,-5576.77 -8564.89,-9018.5l-12327.76 -11713.84c-9232.42,-8725.2 -13848.37,-18678.23 -13848.37,-29884.86 0,-11713.84 2721.63,-20652.45 8164.9,-26789.52 5443.26,-6163.88 13341.67,-9232.42 23641.09,-9232.42 12621.05,0 21586.46,3361.83 26869.93,10086.02 5282.96,6724.18 7924.69,16943.71 7924.69,30631.77l-27990.55 0 0 -9445.3c0,-1894.83 -533.5,-3335.55 -1601.02,-4376.26 -1067,-1040.72 -2508.23,-1574.22 -4322.65,-1574.22 -2187.62,0 -3788.64,613.91 -4802.55,1841.23 -1040.72,1227.31 -1547.93,2801.53 -1547.93,4722.65 0,1921.12 534.02,4029.36 1574.22,6270.58 1040.72,2241.22 3095.34,4803.06 6163.88,7738.1l15876.7 15235.99c3175.24,3014.93 6110.27,6216.97 8751.49,9579.32 2668.54,3361.83 4803.06,7257.69 6430.89,11713.33 1601.02,4456.16 2401.53,9899.42 2401.53,16303.51 0,12914.35 -2374.73,23053.98 -7150.99,30365.27 -4749.97,7337.58 -13047.86,10993.23 -24895.2,10993.23z"/>
  </g>
 </g>
</svg>
