<?xml version="1.0" encoding="UTF-8"?>
<!DOCTYPE svg PUBLIC "-//W3C//DTD SVG 1.1//EN" "http://www.w3.org/Graphics/SVG/1.1/DTD/svg11.dtd">
<!-- Creator: CorelDRAW 2020 (64-Bit) -->
<svg xmlns="http://www.w3.org/2000/svg" xml:space="preserve" width="183.356mm" height="111.286mm" version="1.1" style="shape-rendering:geometricPrecision; text-rendering:geometricPrecision; image-rendering:optimizeQuality; fill-rule:evenodd; clip-rule:evenodd"
viewBox="0 0 3372.35 2046.8"
 xmlns:xlink="http://www.w3.org/1999/xlink"
 xmlns:xodm="http://www.corel.com/coreldraw/odm/2003">
 <defs>
  <style type="text/css">
   <![CDATA[
    .fil0 {fill:#2B2959}
    .fil2 {fill:#FEFEFE;fill-rule:nonzero}
    .fil1 {fill:#E9552A;fill-rule:nonzero}
   ]]>
  </style>
 </defs>
 <g id="Содержимое_x0020_PowerClip">
  <metadata id="CorelCorpID_0Corel-Layer"/>
  <polygon class="fil0" points="-0,0 2290.71,0 2290.71,685.81 -0,685.81 "/>
  <polygon class="fil0" points="-0,623.11 3372.35,623.11 3372.35,1386.56 -0,1386.56 "/>
  <polygon class="fil0" points="-0,1281.03 1970.85,1281.03 1970.85,2046.8 -0,2046.8 "/>
  <g id="_1277226589968">
   <path class="fil1" d="M478.03 586.89l-113.05 0 0 -382.23 -32.93 0 0 270.42c0,35.63 -4.21,61.19 -12.53,76.69 -8.41,15.6 -21.04,25.26 -37.96,29.19 -17.01,3.92 -44,5.94 -81.13,5.94l-17.65 0 0 -82.12c13.81,0 23.23,-1.91 28.45,-5.64 5.21,-3.72 7.77,-16.51 7.77,-38.34l0 -351.54 259.04 0 0 477.64zm158.06 -477.64l0 477.64 -113.05 0 0 -477.64 113.05 0zm45.09 0l113.05 0 0.55 201.68c20.95,-0.61 31.74,-13.59 32.47,-38.95l2.1 -93.19c0.73,-34.32 6.77,-57.57 18.11,-69.54l104.28 0c-10.06,11.57 -15,35.63 -14.82,71.96l0.55 81.92c0.36,49.52 -24.97,77.8 -76.1,84.64 51.13,6.84 76.47,35.52 76.1,85.85l-0.55 75.98c-0.18,36.23 4.76,62 14.82,77.29l-104.28 0c-12.07,-11.98 -18.11,-35.22 -18.11,-69.64l0 -93.09c0,-11.87 -3.2,-21.34 -9.6,-28.48 -6.49,-7.15 -14.82,-10.87 -24.97,-11.07l-0.55 202.29 -113.05 0 0 -477.64zm488.99 0l64.58 477.64 -115.34 0 -6.13 -85.75 -40.7 0 -6.13 85.75 -116.8 0 57.26 -477.64 163.27 0zm-59.91 307.36c-5.4,-54.14 -11.07,-121.17 -17.11,-201.18 -11.16,91.79 -18.2,158.81 -21.22,201.18l38.33 0zm143.88 -307.36l113.7 0c30.73,0 54.33,2.62 70.89,7.95 16.46,5.34 28.9,12.98 37.23,22.95 8.32,10.06 13.9,22.24 16.92,36.43 2.93,14.29 4.39,36.33 4.39,66.22l0 41.56c0,30.39 -2.84,52.64 -8.6,66.52 -5.67,13.99 -16.19,24.76 -31.37,32.2 -15.27,7.45 -35.22,11.17 -59.82,11.17l-30.28 0 0 192.63 -113.06 0 0 -477.64zm113.06 81.52l0 121.67c3.2,0.2 5.94,0.3 8.23,0.3 10.34,0 17.47,-2.82 21.5,-8.45 3.93,-5.53 5.95,-17.21 5.95,-34.92l0 -39.35c0,-16.3 -2.29,-26.97 -6.95,-31.9 -4.57,-4.93 -14.18,-7.35 -28.72,-7.35zm421.48 -81.52l0 477.64 -113.06 0 0 -200.48 -32.93 0 0 200.48 -113.06 0 0 -477.64 113.06 0 0 170.89 32.93 0 0 -170.89 113.06 0zm158.7 0l0 477.64 -113.05 0 0 -477.64 113.05 0zm123.57 166.66l0 97.22 -81.77 0 0 -97.22 81.77 0zm0 213.76l0 97.22 -81.77 0 0 -97.22 81.77 0z"/>
   <path class="fil2" d="M461.56 762.12l0 477.64 -113.05 0 0 -200.48 -32.93 0 0 200.48 -113.05 0 0 -477.64 113.05 0 0 170.89 32.93 0 0 -170.89 113.05 0zm45.64 0l188.24 0 0 95.41 -75.19 0 0 91.18 70.25 0 0 90.58 -70.25 0 0 105.07 82.87 0 0 95.41 -195.92 0 0 -477.64zm228.03 0l113.7 0c30.73,0 54.33,2.62 70.89,7.95 16.46,5.34 28.9,12.98 37.23,22.95 8.32,10.06 13.9,22.24 16.92,36.43 2.93,14.29 4.39,36.33 4.39,66.22l0 41.56c0,30.39 -2.83,52.64 -8.6,66.52 -5.67,13.99 -16.19,24.76 -31.37,32.2 -15.27,7.45 -35.22,11.17 -59.82,11.17l-30.28 0 0 192.63 -113.06 0 0 -477.64zm113.06 81.52l0 121.67c3.2,0.2 5.94,0.3 8.23,0.3 10.34,0 17.47,-2.82 21.5,-8.45 3.93,-5.53 5.94,-17.21 5.94,-34.92l0 -39.35c0,-16.3 -2.29,-26.97 -6.95,-31.9 -4.57,-4.93 -14.18,-7.35 -28.72,-7.35zm419.84 198.46c0,48.01 -1.01,81.92 -3.11,101.85 -2.01,20.03 -8.41,38.24 -19.21,54.75 -10.79,16.51 -25.43,29.18 -43.81,38.04 -18.38,8.86 -39.79,13.28 -64.21,13.28 -23.23,0 -44,-4.23 -62.47,-12.58 -18.48,-8.35 -33.39,-20.83 -44.54,-37.54 -11.25,-16.71 -17.93,-34.92 -20.12,-54.55 -2.1,-19.73 -3.2,-54.15 -3.2,-103.26l0 -81.72c0,-48.01 1.01,-81.92 3.11,-101.85 2.01,-20.03 8.42,-38.24 19.21,-54.75 10.79,-16.51 25.43,-29.18 43.81,-38.04 18.38,-8.86 39.79,-13.28 64.21,-13.28 23.23,0 43.99,4.23 62.47,12.58 18.48,8.35 33.38,20.83 44.54,37.54 11.25,16.71 17.93,34.92 20.12,54.55 2.1,19.73 3.2,54.15 3.2,103.26l0 81.72zm-113.05 -156.9c0,-22.14 -1.1,-36.33 -3.29,-42.57 -2.2,-6.14 -6.68,-9.26 -13.45,-9.26 -5.76,0 -10.15,2.52 -13.26,7.55 -3.02,4.93 -4.57,19.73 -4.57,44.28l0 222.92c0,27.67 1.01,44.79 3.02,51.23 2.01,6.54 6.68,9.76 13.99,9.76 7.5,0 12.35,-3.72 14.45,-11.17 2.11,-7.45 3.11,-25.26 3.11,-53.34l0 -219.4zm355.54 84.34c16.37,6.14 28.54,16.1 36.59,29.89 7.96,13.89 11.98,46.39 11.98,97.52 0,37.94 -3.93,67.43 -11.8,88.36 -7.87,20.93 -21.4,36.83 -40.7,47.7 -19.3,10.97 -43.99,16.4 -74.18,16.4 -34.21,0 -61.19,-6.34 -80.67,-19.02 -19.57,-12.68 -32.47,-28.28 -38.6,-46.7 -6.13,-18.32 -9.24,-50.32 -9.24,-95.81l0 -37.74 108.12 0 0 77.69c0,20.73 1.1,33.92 3.38,39.45 2.2,5.64 7.22,8.45 14.91,8.45 8.42,0 13.99,-3.52 16.65,-10.67 2.65,-7.05 4.02,-25.56 4.02,-55.45l0 -33.11c0,-18.32 -1.83,-31.7 -5.58,-40.16 -3.75,-8.45 -9.33,-13.99 -16.65,-16.61 -7.32,-2.72 -21.5,-4.23 -42.53,-4.63l0 -69.44c25.7,0 41.53,-1.11 47.66,-3.22 6.04,-2.21 10.43,-6.84 13.08,-14.19 2.65,-7.25 4.02,-18.62 4.02,-34.12l0 -26.47c0,-16.71 -1.55,-27.68 -4.66,-33.01 -3.2,-5.33 -8.05,-7.95 -14.63,-7.95 -7.59,0 -12.71,2.82 -15.46,8.35 -2.84,5.64 -4.21,17.51 -4.21,35.83l0 39.15 -108.12 0 0 -40.66c0,-45.59 9.51,-76.29 28.45,-92.29 18.93,-16 49.03,-24.05 90.28,-24.05 51.59,0 86.62,11.07 105.01,33.31 18.38,22.24 27.62,53.14 27.62,92.59 0,26.77 -3.29,46.09 -9.88,57.97 -6.68,11.87 -18.29,22.74 -34.85,32.61zm91.01 -207.42l113.05 0 0.55 201.68c20.95,-0.61 31.74,-13.59 32.47,-38.95l2.1 -93.19c0.73,-34.32 6.77,-57.57 18.11,-69.54l104.27 0c-10.06,11.57 -15,35.63 -14.82,71.96l0.55 81.92c0.36,49.52 -24.97,77.8 -76.1,84.64 51.13,6.84 76.47,35.52 76.1,85.85l-0.55 75.98c-0.18,36.23 4.76,62 14.82,77.29l-104.27 0c-12.07,-11.98 -18.11,-35.22 -18.11,-69.64l0 -93.09c0,-11.87 -3.2,-21.34 -9.6,-28.48 -6.49,-7.15 -14.82,-10.87 -24.97,-11.07l-0.55 202.29 -113.05 0 0 -477.64zm488.99 0l64.58 477.64 -115.34 0 -6.13 -85.75 -40.7 0 -6.13 85.75 -116.8 0 57.26 -477.64 163.27 0zm-59.91 307.36c-5.4,-54.14 -11.07,-121.17 -17.1,-201.18 -11.16,91.79 -18.2,158.81 -21.22,201.18l38.33 0zm343.92 -99.94c16.37,6.14 28.54,16.1 36.59,29.89 7.96,13.89 11.98,46.39 11.98,97.52 0,37.94 -3.93,67.43 -11.8,88.36 -7.86,20.93 -21.4,36.83 -40.7,47.7 -19.3,10.97 -43.99,16.4 -74.18,16.4 -34.21,0 -61.19,-6.34 -80.67,-19.02 -19.57,-12.68 -32.47,-28.28 -38.6,-46.7 -6.13,-18.32 -9.24,-50.32 -9.24,-95.81l0 -37.74 108.12 0 0 77.69c0,20.73 1.1,33.92 3.38,39.45 2.19,5.64 7.22,8.45 14.91,8.45 8.41,0 13.99,-3.52 16.65,-10.67 2.65,-7.05 4.02,-25.56 4.02,-55.45l0 -33.11c0,-18.32 -1.83,-31.7 -5.58,-40.16 -3.75,-8.45 -9.33,-13.99 -16.65,-16.61 -7.32,-2.72 -21.5,-4.23 -42.53,-4.63l0 -69.44c25.7,0 41.53,-1.11 47.66,-3.22 6.03,-2.21 10.43,-6.84 13.08,-14.19 2.65,-7.25 4.02,-18.62 4.02,-34.12l0 -26.47c0,-16.71 -1.55,-27.68 -4.66,-33.01 -3.2,-5.33 -8.05,-7.95 -14.63,-7.95 -7.59,0 -12.71,2.82 -15.46,8.35 -2.83,5.64 -4.21,17.51 -4.21,35.83l0 39.15 -108.12 0 0 -40.66c0,-45.59 9.51,-76.29 28.45,-92.29 18.93,-16 49.02,-24.05 90.28,-24.05 51.59,0 86.62,11.07 105.01,33.31 18.38,22.24 27.62,53.14 27.62,92.59 0,26.77 -3.29,46.09 -9.88,57.97 -6.68,11.87 -18.29,22.74 -34.85,32.61zm285.75 -207.42l64.58 477.64 -115.34 0 -6.13 -85.75 -40.7 0 -6.13 85.75 -116.8 0 57.26 -477.64 163.27 0zm-59.91 307.36c-5.4,-54.14 -11.07,-121.17 -17.1,-201.18 -11.16,91.79 -18.2,158.81 -21.22,201.18l38.33 0zm402.92 -307.36l0 477.64 -113.05 0 0 -200.48 -32.93 0 0 200.48 -113.05 0 0 -477.64 113.05 0 0 170.89 32.93 0 0 -170.89 113.05 0zm158.7 0l0 477.64 -113.05 0 0 -477.64 113.05 0zm-2846.48 652.87l0 477.64 -113.05 0 0 -477.64 113.05 0zm308.52 208.33l-113.06 0 0 -82.93c0,-24.15 -1.19,-39.15 -3.57,-45.19 -2.38,-5.94 -7.68,-8.96 -15.82,-8.96 -9.15,0 -15,3.62 -17.47,10.87 -2.47,7.35 -3.75,23.05 -3.75,47.2l0 221.61c0,23.25 1.28,38.34 3.75,45.49 2.47,7.04 8.05,10.57 16.65,10.57 8.32,0 13.81,-3.52 16.37,-10.67 2.56,-7.04 3.84,-23.75 3.84,-50.02l0 -60.08 113.06 0 0 18.62c0,49.52 -3.2,84.64 -9.51,105.27 -6.31,20.73 -20.4,38.85 -42.07,54.45 -21.77,15.6 -48.48,23.35 -80.31,23.35 -33.02,0 -60.28,-6.54 -81.77,-19.73 -21.4,-13.18 -35.67,-31.4 -42.62,-54.75 -6.95,-23.35 -10.43,-58.37 -10.43,-105.17l0 -139.49c0,-34.42 1.1,-60.18 3.2,-77.39 2.19,-17.21 8.51,-33.81 19.21,-49.72 10.61,-15.9 25.34,-28.48 44.18,-37.64 18.84,-9.16 40.52,-13.69 65.04,-13.69 33.2,0 60.64,7.04 82.32,21.23 21.59,14.09 35.76,31.7 42.62,52.84 6.77,21.13 10.15,53.94 10.15,98.53l0 45.39zm267.63 -208.33l0 95.41 -66.41 0 0 382.23 -113.05 0 0 -382.23 -66.95 0 0 -95.41 246.41 0zm283.18 279.98c0,48.01 -1.01,81.92 -3.11,101.85 -2.01,20.03 -8.41,38.24 -19.21,54.75 -10.79,16.51 -25.43,29.18 -43.81,38.04 -18.38,8.86 -39.79,13.28 -64.21,13.28 -23.23,0 -44,-4.23 -62.47,-12.58 -18.48,-8.35 -33.39,-20.83 -44.54,-37.54 -11.25,-16.71 -17.93,-34.92 -20.12,-54.55 -2.1,-19.73 -3.2,-54.15 -3.2,-103.26l0 -81.72c0,-48.01 1.01,-81.92 3.11,-101.85 2.01,-20.03 8.42,-38.24 19.21,-54.75 10.79,-16.51 25.43,-29.18 43.81,-38.04 18.38,-8.86 39.79,-13.28 64.21,-13.28 23.23,0 44,4.23 62.47,12.58 18.48,8.35 33.39,20.83 44.54,37.54 11.25,16.71 17.93,34.92 20.12,54.55 2.1,19.73 3.2,54.15 3.2,103.26l0 81.72zm-113.05 -156.9c0,-22.14 -1.1,-36.33 -3.29,-42.57 -2.2,-6.14 -6.68,-9.26 -13.44,-9.26 -5.76,0 -10.15,2.52 -13.26,7.55 -3.02,4.93 -4.57,19.73 -4.57,44.28l0 222.92c0,27.67 1.01,44.79 3.02,51.23 2.01,6.54 6.68,9.76 13.99,9.76 7.5,0 12.35,-3.72 14.45,-11.17 2.11,-7.45 3.11,-25.26 3.11,-53.34l0 -219.4zm155.5 -123.08l113.7 0c30.73,0 54.33,2.62 70.89,7.95 16.46,5.34 28.9,12.98 37.23,22.95 8.32,10.06 13.9,22.24 16.92,36.43 2.93,14.29 4.39,36.33 4.39,66.22l0 41.56c0,30.39 -2.84,52.64 -8.6,66.52 -5.67,13.99 -16.19,24.76 -31.37,32.2 -15.27,7.45 -35.22,11.17 -59.82,11.17l-30.28 0 0 192.63 -113.06 0 0 -477.64zm113.06 81.52l0 121.67c3.2,0.2 5.94,0.3 8.23,0.3 10.34,0 17.47,-2.82 21.5,-8.45 3.93,-5.53 5.95,-17.21 5.95,-34.92l0 -39.35c0,-16.3 -2.29,-26.97 -6.95,-31.9 -4.57,-4.93 -14.18,-7.35 -28.72,-7.35zm275.5 -81.52l0 477.64 -113.05 0 0 -477.64 113.05 0zm158.15 0l0 477.64 -113.05 0 0 -477.64 113.05 0zm-80.13 -91.79l0 76.69 -69.7 0 0 -76.69 69.7 0zm117.44 0l0 76.69 -69.7 0 0 -76.69 69.7 0z"/>
  </g>
 </g>
</svg>
