<svg width="390" height="781" viewBox="0 0 390 781" fill="none" xmlns="http://www.w3.org/2000/svg">
<g style="mix-blend-mode:multiply" opacity="0.05">
<path d="M-451.405 -227.911C-741.954 -60.3885 -841.632 310.9 -674.143 601.393C-506.653 891.885 -135.332 991.62 155.161 824.13C445.653 656.641 545.42 285.376 377.898 -5.1729C210.409 -295.665 -160.913 -395.4 -451.405 -227.911Z" fill="#015FA8"/>
<path d="M143.626 -94.6517L127.125 -107.018L76.5405 -39.6896L93.1955 -27.1866C110.437 -14.1915 121.512 -14.6219 143.189 -43.3679C163.262 -70.0551 161.509 -81.1973 143.715 -94.6278L143.626 -94.6517ZM76.6977 -4.37521L34.2749 -36.274L118.822 -148.726L160.969 -117.045C196.671 -90.2495 198.742 -62.0796 169.584 -23.2775C139.016 17.3959 110.04 20.6875 76.7304 -4.31858L76.6977 -4.37521Z" fill="white"/>
<path d="M243.241 -40.9671L263.577 -15.9437L154.5 72.85L134.107 47.8593L243.241 -40.9671Z" fill="white"/>
<path d="M306.769 117.575C305.947 109.745 303.18 100.245 298.37 90.8683C286.754 68.1335 273.726 65.3128 244.001 80.5119C212.602 96.6023 207.265 109.195 218.947 132.043C223.626 141.194 229.716 148.473 236.284 153.966L214.868 168.52C206.65 162.394 197.667 151.802 192.055 140.775C172.676 102.894 184.313 73.7552 229.07 50.8585C270.818 29.5484 302.262 36.1552 322.77 76.2525C327.883 86.285 331.623 99.2997 332.464 107.948L306.792 117.485L306.769 117.575Z" fill="white"/>
<path d="M336.223 214.485C332.585 193.41 322.771 187.526 287.694 193.585C252.56 199.677 244.994 208.801 248.688 229.844C252.284 250.717 262.682 256.566 297.581 250.459C332.715 244.367 339.925 235.674 336.279 214.452L336.223 214.485ZM220.733 234.51C213.309 191.84 232.671 169.414 282.01 160.858C331.348 152.302 356.622 166.397 364.137 209.617C371.693 253.04 352.562 274.428 303.167 283.016C252.929 291.714 228.2 277.909 220.676 234.543L220.733 234.51Z" fill="white"/>
<path d="M223.146 344.994C225.369 328.839 231.274 314.483 239.39 303.305L265.746 311.038C257.582 322.394 252.13 334.525 250.294 348.343C248.221 363.582 252.917 371.062 262.573 372.357C284.513 375.316 283.898 309.919 330.586 316.255C354.181 319.467 371.274 337.303 366.508 372.591C364.688 386.174 359.894 400.491 353.971 410.63L328.126 403.131C333.38 392.095 337.191 380.912 338.603 370.283C340.934 353.008 335.599 347.558 328.158 346.57C306.453 343.625 307.807 409.125 260.559 402.734C233.037 398.997 218.718 377.596 223.09 345.026L223.146 344.994Z" fill="white"/>
<path d="M-41.6377 474.767C-45.2334 468.539 -43.1037 460.59 -36.819 456.962C-30.591 453.366 -22.5861 455.463 -19.0144 461.781C-15.3859 468.065 -17.5484 475.957 -23.8003 479.642C-30.0283 483.238 -38.0092 481.051 -41.605 474.823L-41.6377 474.767ZM131.508 622.335C135.077 618.841 135.14 613.067 131.645 609.498C102.823 579.712 72.1176 567.847 35.9732 567.351C15.7719 567.011 -6.15121 569.704 -31.343 574.057C-25.2494 565.783 -19.4606 550.966 -20.8498 524.894C33.7979 501.345 56.2081 407.707 -30.1986 359.38C-39.9903 354.842 -46.4171 342.926 -46.4393 341.58C-46.4393 341.58 -38.3124 343.757 -29.173 338.405C-29.173 338.405 14.423 313.235 20.3679 309.803C29.2569 304.671 77.0698 266.799 49.1538 218.447C21.2052 170.039 -11.3326 114.466 -11.3326 114.466C-18.1517 129.198 -27.2256 141.986 -40.8705 149.864C-54.4589 157.709 -128.289 200.335 -128.289 200.335L-169.346 129.223C-169.346 129.223 -186.771 103.878 -181.138 72.3171L-271.161 124.292C-316.205 150.223 -318.444 197.338 -302.035 225.761C-275.067 272.47 -270.122 281.166 -270.122 281.166L-345.651 324.772C-345.651 324.772 -366.425 335.861 -396.807 342.078L-339.532 440.364C-295.5 493.226 -236.257 474.498 -187.777 418.954C-187.777 418.954 -170.779 448.395 -164.274 459.662C-157.802 470.873 -139.875 508.459 -73.6215 523.58C-63.3448 525.951 -50.871 561.024 -45.7171 576.619C-61.7682 579.545 -79.1064 582.987 -98.1629 586.591C-151.103 596.623 -211.442 593.186 -267.133 570.079C-322.799 546.884 -373.946 504.32 -409.213 434.998C-445.274 364.172 -449.143 285.555 -426.401 215.505C-403.626 145.511 -354.141 84.2537 -283.315 48.1934C-212.456 12.1898 -133.872 8.26377 -63.8214 31.006C6.20497 53.8376 67.4298 103.266 103.49 174.092C148.549 262.597 143.411 363.399 98.6106 444.147C96.1814 448.569 97.7709 454.068 102.193 456.497C106.559 458.959 112.114 457.337 114.487 452.947C162.03 367.144 167.512 259.877 119.688 165.797C43.1079 15.2443 -141 -44.6163 -291.496 31.9306C-442.017 108.567 -501.91 292.618 -425.363 443.114L-425.265 443.284C-388.141 516.214 -333.428 562.079 -274.073 586.693C-214.686 611.364 -150.851 614.973 -94.7268 604.311C-38.3434 593.575 3.03833 584.705 35.6806 585.412C68.3882 586.231 92.1555 595.232 118.695 622.108C122.189 625.677 127.963 625.741 131.532 622.246L131.508 622.335ZM180.125 693.99C204.721 714.364 240.342 711.991 240.342 711.991C240.342 711.991 236.049 676.574 211.363 656.176C186.767 635.802 151.146 638.174 151.146 638.174C151.146 638.174 155.496 673.559 180.125 693.99ZM138.734 702.713C139.07 670.737 114.886 644.539 114.886 644.539C114.886 644.539 90.0646 670.193 89.7286 702.169C89.3925 734.144 113.634 760.31 113.634 760.31C113.634 760.31 138.455 734.656 138.791 702.68L138.734 702.713ZM73.0454 608.68C73.0454 608.68 41.1752 624.74 30.3862 654.825C19.5406 684.941 33.8607 717.59 33.8607 717.59C33.8607 717.59 65.7309 701.53 76.5199 671.445C87.3089 641.361 73.0454 608.68 73.0454 608.68ZM212.656 620.628C244.472 617.81 268.112 591.026 268.112 591.026C268.112 591.026 240.102 568.924 208.23 571.774C176.414 574.592 152.774 601.376 152.774 601.376C152.774 601.376 180.784 623.478 212.6 620.661L212.656 620.628ZM169.536 561.502C199.302 549.903 214.59 517.674 214.59 517.674C214.59 517.674 181.534 504.222 151.769 515.821C122.003 527.42 106.715 559.649 106.715 559.649C106.715 559.649 139.771 573.101 169.536 561.502Z" fill="white"/>
</g>
</svg>
