<svg width="763" height="390" viewBox="0 0 763 390" fill="none" xmlns="http://www.w3.org/2000/svg">
<path d="M476.767 310.638C470.539 314.233 462.59 312.104 458.962 305.819C455.366 299.591 457.463 291.586 463.781 288.014C470.065 284.386 477.957 286.548 481.642 292.8C485.238 299.028 483.051 307.009 476.823 310.605L476.767 310.638ZM624.335 137.492C620.841 133.923 615.067 133.86 611.498 137.355C581.712 166.177 569.847 196.882 569.351 233.027C569.011 253.228 571.704 275.151 576.057 300.343C567.783 294.249 552.966 288.461 526.894 289.85C503.345 235.202 409.707 212.792 361.38 299.199C356.842 308.99 344.926 315.417 343.58 315.439C343.58 315.439 345.757 307.312 340.405 298.173C340.405 298.173 315.235 254.577 311.803 248.632C306.671 239.743 268.799 191.93 220.447 219.846C172.039 247.795 116.466 280.333 116.466 280.333C131.198 287.152 143.986 296.226 151.864 309.871C159.709 323.459 202.335 397.289 202.335 397.289L131.223 438.346C131.223 438.346 105.878 455.771 74.3172 450.138L126.292 540.161C152.223 585.205 199.338 587.444 227.761 571.035C274.47 544.067 283.166 539.122 283.166 539.122L326.772 614.651C326.772 614.651 337.861 635.425 344.078 665.807L442.364 608.532C495.226 564.5 476.498 505.257 420.954 456.777C420.954 456.777 450.395 439.779 461.662 433.274C472.873 426.802 510.459 408.875 525.58 342.621C527.951 332.345 563.024 319.871 578.619 314.717C581.545 330.768 584.987 348.106 588.591 367.163C598.623 420.103 595.186 480.442 572.079 536.133C548.884 591.799 506.32 642.946 436.998 678.213C366.172 714.274 287.555 718.143 217.505 695.401C147.511 672.626 86.2537 623.141 50.1934 552.315C14.1898 481.456 10.2638 402.872 33.006 332.821C55.8376 262.795 105.266 201.57 176.092 165.51C264.597 120.451 365.399 125.589 446.147 170.389C450.569 172.819 456.068 171.229 458.497 166.807C460.959 162.441 459.337 156.886 454.947 154.513C369.144 106.97 261.877 101.488 167.797 149.312C17.2443 225.892 -42.6163 410 33.9306 560.496C110.567 711.017 294.618 770.91 445.114 694.363L445.284 694.265C518.214 657.141 564.079 602.428 588.693 543.073C613.364 483.686 616.973 419.851 606.311 363.727C595.575 307.343 586.705 265.962 587.412 233.319C588.231 200.612 597.232 176.844 624.109 150.305C627.677 146.811 627.741 141.037 624.246 137.468L624.335 137.492ZM695.99 88.8752C716.364 64.2788 713.991 28.658 713.991 28.658C713.991 28.658 678.574 32.9514 658.176 57.637C637.802 82.2334 640.174 117.854 640.174 117.854C640.174 117.854 675.559 113.504 695.99 88.8752ZM704.713 130.266C672.737 129.93 646.539 154.114 646.539 154.114C646.539 154.114 672.193 178.935 704.169 179.271C736.144 179.607 762.31 155.366 762.31 155.366C762.31 155.366 736.656 130.545 704.68 130.209L704.713 130.266ZM610.68 195.955C610.68 195.955 626.74 227.825 656.825 238.614C686.941 249.459 719.59 235.139 719.59 235.139C719.59 235.139 703.53 203.269 673.445 192.48C643.361 181.691 610.68 195.955 610.68 195.955ZM622.628 56.3438C619.81 24.5282 593.026 0.887785 593.026 0.887785C593.026 0.887785 570.924 28.8977 573.774 60.7699C576.592 92.5856 603.376 116.226 603.376 116.226C603.376 116.226 625.478 88.2161 622.661 56.4004L622.628 56.3438ZM563.502 99.4637C551.903 69.6982 519.674 54.4101 519.674 54.4101C519.674 54.4101 506.222 87.4659 517.821 117.231C529.42 146.997 561.649 162.285 561.649 162.285C561.649 162.285 575.101 129.229 563.502 99.4637Z" fill="white"/>
</svg>
