<svg id="eSFjprbqXz11" xmlns="http://www.w3.org/2000/svg" xmlns:xlink="http://www.w3.org/1999/xlink" viewBox="0 0 50.3 50.3" shape-rendering="geometricPrecision" text-rendering="geometricPrecision"><g transform="translate(-9.892904-10.289004)"><path d="M10.062,35.5087c-.0081,13.845,11.2082,25.0722,25.0506,25.0803s25.0722-11.2083,25.0803-25.0507-11.2056-25.0722-25.0506-25.0803C21.2999,10.4499,10.0701,21.6663,10.062,35.5087Z" fill="#015fa8"/><path d="M15.5676,26.7697l3.6245.421.6154.0837.0107-.0189-.4102-.4669-2.3426-2.8014.6828-1.2684l5.1143,2.7555-.5667,1.0498-2.6044-1.4034-.5452-.3103-.0162.0161.4157.4696l2.0781,2.4749-.4103.7638-3.2008-.3779-.6207-.089v.0188l.5559.2888l2.5963,1.4007-.5478,1.0148-5.1116-2.7528.6828-1.2685Z" fill="#fff"/><path d="M27.1078,16.9866l-.7827.3346l1.363,3.1981.7907-.3373c.8205-.3482,1.0337-.753.4534-2.1213-.5397-1.2684-.9743-1.4358-1.8217-1.0768l-.0027.0027Zm1.846,4.256l-2.016.8583-2.2751-5.3437l2.0025-.8529c1.6949-.7233,2.7447-.2159,3.5301,1.6274.8231,1.9324.3427,3.0362-1.2388,3.7109h-.0027Z" fill="#fff"/><path d="M31.0832,14.5333l1.3143-.2105.923,5.7323-1.3143.2132-.923-5.735Z" fill="#fff"/><path d="M38.0624,15.5345c-.2968-.1323-.6936-.2294-1.1281-.251-1.0525-.054-1.4223.3535-1.4924,1.7299-.0729,1.4547.2671,1.9054,1.3251,1.9594.4237.0216.8096-.0459,1.1416-.1674l.0783,1.0661c-.3887.1673-.9527.2699-1.4628.2429-1.7543-.0891-2.5558-1.1065-2.4506-3.1792.0999-1.9324.9851-2.9202,2.8419-2.8257.4642.0243,1.0067.1592,1.3333.3076l-.189,1.1147.0027.0027Z" fill="#fff"/><path d="M42.135,16.4817c-.8285-.3049-1.2415-.0755-1.7489,1.3036-.5073,1.3818-.3373,1.8406.4912,2.1429.8205.3022,1.2442.0512,1.7462-1.3225.5074-1.3818.3454-1.819-.4885-2.1267v.0027Zm-1.6679,4.5422c-1.6787-.6154-2.0808-1.7705-1.3683-3.7109s1.7381-2.5531,3.4383-1.9297c1.7084.6261,2.0781,1.7516,1.3656,3.6947-.7259,1.9756-1.7299,2.5747-3.4356,1.9486v-.0027Z" fill="#fff"/><path d="M44.4668,23.2181c-.5317-.4129-.9231-.9203-1.1552-1.4411l.8205-.7827c.2375.5263.5587.9716,1.0148,1.3224.5019.3887.8663.3752,1.1119.0567.5586-.7233-1.792-2.0511-.6019-3.5895.6019-.7772,1.5924-1.0201,2.7556-.1214.448.3455.8609.8124,1.1011,1.2334l-.8016.7691c-.286-.4156-.6072-.7826-.9581-1.0525-.5694-.4399-.8744-.3617-1.0633-.1161-.5533.7152,1.8163,2.0188.6126,3.576-.7017.9068-1.7623.977-2.8364.1484v-.0027Z" fill="#fff"/><path d="M18.4635,39.3166l-.1944-.8285-3.3843.7907.197.8367c.2024.8663.5614,1.1497,2.0106.8096c1.3414-.3131,1.5843-.7125,1.3738-1.6085h-.0027Zm-4.5098,1.0876l-.4993-2.1347l5.6541-1.3225.4966,2.1186c.421,1.7947-.2564,2.742-2.2104,3.1981-2.043.4777-3.0497-.1835-3.441-1.8595Z" fill="#fff"/><path d="M18.4662,47.8071l-.9959.5533-2.008-3.4032l5.0037-2.9499l1.9459,3.3007-.9797.6072-1.2955-2.1941-.9931.5856l1.0903,1.8487-.896.5263-1.0877-1.8487-1.1416.672l1.3576,2.3021Z" fill="#fff"/><path d="M22.3498,51.761l-.8367.8259-2.6502-2.5531l4.0293-4.1805.9473.9122-3.2116,3.3331l1.7219,1.6624Z" fill="#fff"/><path d="M29.024,50.3226l.3184,3.6353.0405.6181.0216.0081.3752-.4939l2.2724-2.8608l1.3791.4129-1.6679,5.565-1.1443-.3427.8501-2.8338.197-.5964-.0215-.0135-.3752.4992-2.0052,2.537-.8313-.2483-.2752-3.2117-.0378-.6261-.0162.0027-.1754.6046-.8448,2.8256-1.1065-.3319l1.6679-5.5623l1.3791.4129Z" fill="#fff"/><path d="M38.8828,54.9619c.1053,1.4601-.6315,2.2347-2.1671,2.3453-1.5303.1107-2.3912-.5478-2.4992-2.0079l-.2698-3.7217l1.2981-.0945.2672,3.7082c.0513.7017.3886.9878,1.1173.9365.726-.0539,1.0121-.3751.9608-1.0876l-.2699-3.7082l1.2901-.0945.2698,3.7217.0027.0027Z" fill="#fff"/><path d="M45.0308,54.924l-3.3196-2.0187-.5262-.3373-.0108.0135.2537.5721l1.2063,2.8014-1.066.4588-2.2967-5.3329l1.0255-.4426l3.0821,1.9378.5263.3373.0108-.0135-.2591-.5613-1.1416-2.653l1.0606-.4561l2.294,5.3329-.8393.3616Z" fill="#fff"/><path d="M46.4666,48.2984l-.6315.5722l2.3318,2.5801.6369-.5749c.6612-.5964.7314-1.0472-.2645-2.151-.923-1.0228-1.3899-1.0417-2.0727-.4237v-.0027ZM49.6,51.7178l-1.6274,1.4709-3.8945-4.3073l1.6139-1.4601c1.3683-1.2361,2.5234-1.1011,3.8675.3859c1.4061,1.5572,1.3143,2.7582.0378,3.9106h.0027Z" fill="#fff"/><path d="M49.9751,43.7994c-.4291.7719-.2699,1.2145,1.0147,1.9324s1.7651.6207,2.1942-.1512c.4264-.7637.2456-1.2198-1.031-1.9323-1.2846-.7179-1.7434-.6262-2.1779.1511Zm4.2264,2.3588c-.8718,1.5626-2.0754,1.7785-3.881.7719-1.8055-1.0067-2.2508-2.1159-1.3683-3.7001.8879-1.5897,2.0565-1.7786,3.8621-.7719c1.8406,1.0255,2.2724,2.1105,1.3872,3.7001Z" fill="#fff"/><path d="M43.6409,35.3628c-.2968,0-.537-.2402-.537-.5398c0-.2968.2402-.5397.5397-.537.2996,0,.5371.2402.5398.5397c0,.2969-.2429.5371-.5398.5371h-.0027Zm8.8495-3.1441c-.0512-.1998-.2564-.3212-.4561-.2699-1.6598.4156-2.7177,1.2684-3.4815,2.5504-.4291.7152-.7853,1.5545-1.1497,2.545-.17-.3886-.5802-.9014-1.541-1.3899.2861-2.4398-2.599-5.1737-6.1102-3.0821-.3643.2564-.923.2402-.9716.2132c0,0,.2456-.2456.2429-.6828c0,0,0-2.0781,0-2.3615c0-.4237-.367-2.9147-2.6718-2.9147-2.3075,0-4.9659.0162-4.9659.0162.3859.5478.6558,1.1362.6558,1.7866c0,.6477,0,4.167,0,4.167h-3.3897c0,0-1.2658.0999-2.2779-.753v4.2912c-.0027,2.1456,1.6355,3.1981,2.9904,3.1981c2.2265,0,2.6394.0027,2.6394.0027v3.6003c0,0-.0324.9716-.4372,2.186l4.696-.0189c2.7987-.483,3.352-2.9876,2.3669-5.8672c0,0,1.4034,0,1.9405,0c.5343,0,2.2481.1349,4.1562-1.9216.2968-.3185,1.8082-.0405,2.4721.0971-.2267.6343-.4615,1.3252-.726,2.0809-.7341,2.0997-2.1024,4.1859-4.0779,5.6999-1.9783,1.5114-4.5557,2.4613-7.7619,2.2913-3.2764-.1727-6.1668-1.6571-8.2018-3.916-2.0322-2.2589-3.2008-5.2924-3.0281-8.5688.1754-3.2764,1.6571-6.1669,3.916-8.2018c2.2617-2.0322,5.2925-3.2008,8.5689-3.0281c4.0941.2159,7.5918,2.4802,9.5539,5.7485.1079.1782.3373.2348.5154.1269.1782-.1053.2348-.3374.1269-.5128-2.0862-3.4707-5.8079-5.8808-10.1585-6.1129-6.963-.3697-12.9031,4.9767-13.2729,11.937-.367,6.963,4.9767,12.9032,11.937,13.2729h.0081c3.3736.1781,6.1426-.8312,8.2477-2.4451c2.1078-1.614,3.5543-3.8216,4.3316-6.0481.78-2.2374,1.3171-3.8999,2.016-5.0523.7044-1.1524,1.5168-1.8163,3.0254-2.2103.1998-.0513.3212-.2564.2699-.4561l.0027.0027Zm3.5652-.2591c1.2361-.4588,1.8865-1.7813,1.8865-1.7813s-1.3548-.5775-2.5936-.116c-1.2361.4588-1.8865,1.7812-1.8865,1.7812s1.3548.5749,2.5936.1161Zm-.5425,1.6598c-1.1362-.672-2.572-.3482-2.572-.3482s.4049,1.4169,1.5411,2.0889s2.572.3455,2.572.3455-.4049-1.4169-1.5411-2.0889v.0027Zm-4.7175.4075c0,0-.0837,1.4709.7691,2.4775.8529,1.0094,2.3156,1.1713,2.3156,1.1713s.0837-1.4708-.7691-2.4775-2.3156-1.1713-2.3156-1.1713Zm3.3087-4.7446c.556-1.1956.0864-2.5936.0864-2.5936s-1.3683.5452-1.9243,1.7435c-.5559,1.1956-.0863,2.5936-.0863,2.5936s1.3683-.5452,1.9242-1.7408v-.0027Zm-3.0038.3212c.1997-1.3036-.6369-2.5153-.6369-2.5153s-1.1632.9041-1.3629,2.2076.6369,2.5153.6369,2.5153s1.1632-.9041,1.3629-2.2076Z" fill="#fff"/><path d="M21.2189,17.5154l-.1619,1.4169-.7098.6477-.2591-1.031l1.1308-1.0336ZM25.645,21.507l.7449.8609-2.9147,2.6638-3.9187-4.2858l2.8283-2.5855.7962.8366-1.8811,1.7192.7773.8501l1.5842-1.4465.699.7664-1.5842,1.4466.8933.977l1.9728-1.8028h.0027Z" fill="#fff"/></g></svg>
